
<svg width="64px" height="32px" viewBox="0 0 64 32" version="1.1" xmlns="http://www.w3.org/2000/svg" xmlns:xlink="http://www.w3.org/1999/xlink">
	<!-- Generator: Sketch 48.2 (47327) - http://www.bohemiancoding.com/sketch -->
	<desc>Created with Sketch.</desc>
	<defs></defs>
	<g id="Page-1" stroke="none" stroke-width="1" fill="none" fill-rule="evenodd">
		<g id="Tab">
			<rect id="Rectangle-2-Copy-5" fill="#33B3F2" fill-rule="nonzero" x="0" y="0" width="64" height="32" rx="16"></rect>
			<g id="ic_keyboard_return" transform="translate(18.000000, 2.000000)">
				<g id="Icon-24px">
					<polygon id="Shape" points="0 0 28 0 28 28 0 28"></polygon>
					<path d="M22.1666667,9.16666667 L22.1666667,12.8333333 L6.80166667,12.8333333 L10.2731976,9.35210541 C10.6627923,8.96142245 10.6623513,8.32901794 10.2722121,7.93887873 L10.0404401,7.70710678 C9.64991582,7.31658249 9.01675084,7.31658249 8.62622655,7.70710678 L3.04044011,13.2928932 C2.64991582,13.6834175 2.64991582,14.3165825 3.04044011,14.7071068 L8.62622655,20.2928932 C9.01675084,20.6834175 9.64991582,20.6834175 10.0404401,20.2928932 L10.2722121,20.0611213 C10.6623513,19.6709821 10.6627923,19.0385776 10.2731976,18.6478946 L6.80166667,15.1666667 L23.5,15.1666667 C24.0522847,15.1666667 24.5,14.7189514 24.5,14.1666667 L24.5,9.16666667 C24.5,8.61438192 24.0522847,8.16666667 23.5,8.16666667 L23.1666667,8.16666667 C22.6143819,8.16666667 22.1666667,8.61438192 22.1666667,9.16666667 Z" id="Shape" fill="#FFFFFF" fill-rule="nonzero"></path>
				</g>
			</g>
		</g>
	</g>
</svg>
