<svg
  xmlns="http://www.w3.org/2000/svg"
  viewBox="0 0 712.98 268.02"
  style="transform-box: fill-box; overflow: visible; transform-origin: 50% 50%;">
  <style>

    .hand {
      animation: handMove 3s linear forwards infinite;
      transform-box: fill-box;
    }

    .box {
      opacity: 0;
    }

    .key {
      fill: #fff;
    }

    .key.red {
      animation: keyRed 3s linear forwards infinite;
    }

    .key.orange {
      animation: keyOrange 3s linear forwards infinite;
    }

    .key.yellow {
      animation: keyYellow 3s linear forwards infinite;
    }

    .box.red {
      animation: redBoxAppear 3s linear forwards infinite;
    }

    .box.orange {
      animation: orangeBoxAppear 3s linear forwards infinite;
    }

    .box.yellow {
      animation: yellowBoxAppear 3s linear forwards infinite;
    }

    .guide {
      animation: guideSlide 3s linear forwards infinite;
      transform-box: fill-box;
      transform: translate3d(0, 0, 0);
      -webkit-transform: translate3d(0, 0, 0);
    }

    @keyframes guideSlide {
      0% {
        transform: translate3d(0, 0, 0);
        -webkit-transform: translate3d(0, 0, 0);
      }

      20% {
        transform: translate3d(0, 0, 0);
        -webkit-transform: translate3d(0, 0, 0);
      }

      20.5% {
        transform: translate3d(200%, 0, 0);
        -webkit-transform: translate3d(100%, 0, 0);
      }

      35% {
        transform: translate3d(200%, 0, 0);
        -webkit-transform: translate3d(100%, 0, 0);
      }

      35.5% {
        transform: translate3d(200%, 0, 0);
        -webkit-transform: translate3d(200%, 0, 0);
      }

      51% {
        transform: translate3d(200%, 0, 0);
        -webkit-transform: translate3d(200%, 0, 0);
      }

      51.5% {
        transform: translate3d(300%, 0, 0);
        -webkit-transform: translate3d(300%, 0, 0);
      }

      99.5% {
        transform: translate3d(300%, 0, 0);
        -webkit-transform: translate3d(300%, 0, 0);
      }

      100% {
        transform: translate3d(0, 0, 0);
        -webkit-transform: translate3d(0, 0, 0);
      }
    }

    @keyframes redBoxAppear {
      0% {
        opacity: 0;
      }

      20% {
        opacity: 0;
      }

      21% {
        opacity: 1;
      }

      99% {
        opacity: 1;
      }

      100% {
        opacity: 0;
      }
    }

    @keyframes orangeBoxAppear {
      0% {
        opacity: 0;
      }

      35% {
        opacity: 0;
      }

      36% {
        opacity: 1;
      }

      99% {
        opacity: 1;
      }

      100% {
        opacity: 0;
      }
    }

    @keyframes yellowBoxAppear {
      0% {
        opacity: 0;
      }

      50% {
        opacity: 0;
      }

      51% {
        opacity: 1;
      }

      99% {
        opacity: 1;
      }

      100% {
        opacity: 0;
      }
    }

    @keyframes keyRed {
      0% {
        height: 86.8px;
        fill: #fff;
      }

      20% {
        height: 86.8px;
        fill: #fff;
      }

      21% {
        height: 75px;
        fill: #e33059;
      }

      27% {
        height: 75px;
        fill: #e33059;
      }

      28% {
        height: 86.8px;
        fill: #fff;
      }

      100% {
        height: 86.8px;
        fill: #fff;
      }
    }

    @keyframes keyOrange {
      0% {
        height: 86.8px;
        fill: #fff;
      }

      35% {
        height: 86.8px;
        fill: #fff;
      }

      36% {
        height: 75px;
        fill: #f7943d;
      }

      42% {
        height: 75px;
        fill: #f7943d;
      }

      43% {
        height: 86.8px;
        fill: #fff;
      }

      100% {
        height: 86.8px;
        fill: #fff;
      }
    }

    @keyframes keyYellow {
      0% {
        height: 86.8px;
        fill: #fff;
      }

      51% {
        height: 86.8px;
        fill: #fff;
      }

      52% {
        height: 75px;
        fill: #edd929;
      }

      59% {
        height: 75px;
        fill: #edd929;
      }

      62% {
        height: 86.8px;
        fill: #fff;
      }

      100% {
        height: 86.8px;
        fill: #fff;
      }
    }

    @keyframes handMove {
      0% {
        transform: translate3d(0, 0, 0);
        -webkit-transform: translate3d(0, 0, 0);
      }

      10% {
        transform: translate3d(0, 0, 0);
        -webkit-transform: translate3d(0, 0, 0);
      }

      21% {
        transform: translate3d(-123%, -50%, 0);
        -webkit-transform: translate3d(-123%, -50%, 0);
      }

      26% {
        transform: translate3d(-125%, -50%, 0);
        -webkit-transform: translate3d(-123%, -50%, 0);
      }

      30% {
        transform: translate3d(-100%, -20%, 0);
        -webkit-transform: translate3d(-100%, -20%, 0);
      }

      36% {
        transform: translate3d(-80%, -50%, 0);
        -webkit-transform: translate3d(-80%, -50%, 0);
      }

      41% {
        transform: translate3d(-80%, -50%, 0);
        -webkit-transform: translate3d(-80%, -50%, 0);
      }

      47% {
        transform: translate3d(-65%, -20%, 0);
        -webkit-transform: translate3d(-65%, -20%, 0);
      }

      54% {
        transform: translate3d(-40%, -50%, 0);
        -webkit-transform: translate3d(-40%, -50%, 0);
      }

      64% {
        transform: translate3d(-40%, -50%, 0);
        -webkit-transform: translate3d(-40%, -50%, 0);
      }

      85% {
        transform: translate3d(0, 0, 0);
        -webkit-transform: translate3d(0, 0, 0);
      }

      100% {
        transform: translate3d(0, 0, 0);
        -webkit-transform: translate3d(0, 0, 0);
      }
    }

  </style>
  <g class="boxes">
    <rect class="guide" x="388.9" y="0.6" width="71.53" height="231.95" style="fill:#16a8f0;opacity:0.2"/>
    <rect class="box red" x="388.9" y="160.37" width="71.53" height="42.24" transform="translate(849.32 362.97) rotate(180)" style="fill:#e33059"/>
    <rect class="box orange" x="460.43" y="118.06" width="71.53" height="42.24" transform="translate(992.38 278.36) rotate(180)" style="fill:#f7943d"/>
    <rect class="box yellow" x="531.96" y="75.76" width="71.53" height="42.24" transform="translate(1135.44 193.75) rotate(180)" style="fill:#edd929"/>
  </g>
  <g
    class="grid"
    style="opacity:0.5">
    <line x1="388.9" y1="232.55" x2="388.9" y2="0.6" style="fill:none;stroke:#16a8f0;stroke-linecap:round;stroke-linejoin:round;stroke-width:1.2000000000000002px"/>
    <line x1="354.26" y1="33.45" x2="712.38" y2="33.45" style="fill:none;stroke:#16a8f0;stroke-linecap:round;stroke-linejoin:round;stroke-width:1.2000000000000002px"/>
    <line x1="354.26" y1="75.76" x2="712.38" y2="75.76" style="fill:none;stroke:#16a8f0;stroke-linecap:round;stroke-linejoin:round;stroke-width:1.2000000000000002px"/>
    <line x1="354.26" y1="118.06" x2="712.38" y2="118.06" style="fill:none;stroke:#16a8f0;stroke-linecap:round;stroke-linejoin:round;stroke-width:1.2000000000000002px"/>
    <line x1="354.26" y1="160.37" x2="712.38" y2="160.37" style="fill:none;stroke:#16a8f0;stroke-linecap:round;stroke-linejoin:round;stroke-width:1.2000000000000002px"/>
    <line x1="531.96" y1="232.55" x2="531.96" y2="0.6" style="fill:none;stroke:#16a8f0;stroke-linecap:round;stroke-linejoin:round;stroke-width:1.2000000000000002px"/>
    <line x1="675.01" y1="232.55" x2="675.01" y2="0.6" style="fill:none;stroke:#16a8f0;stroke-linecap:round;stroke-linejoin:round;stroke-width:1.2000000000000002px"/>
    <line x1="460.43" y1="232.55" x2="460.43" y2="0.6" style="fill:none;stroke:#16a8f0;stroke-linecap:round;stroke-linejoin:round;stroke-width:1.2000000000000002px"/>
    <line x1="603.49" y1="232.55" x2="603.49" y2="0.6" style="fill:none;stroke:#16a8f0;stroke-linecap:round;stroke-linejoin:round;stroke-width:1.2000000000000002px"/>
    <line x1="354.26" y1="202.67" x2="712.38" y2="202.67" style="fill:none;stroke:#16a8f0;stroke-linecap:round;stroke-linejoin:round;stroke-width:1.2000000000000002px"/>
  </g>
  <rect class="key red" x="29.18" y="79.71" width="29.78" height="86.8" style="fill:#fff;stroke:#757575;stroke-linecap:round;stroke-linejoin:round;stroke-width:4.2370347905159px"/>
  <rect class="key orange" x="58.97" y="79.71" width="29.78" height="86.8" style="fill:#fff;stroke:#757575;stroke-linecap:round;stroke-linejoin:round;stroke-width:4.2370347905159px"/>
  <rect class="key yellow" x="88.75" y="79.71" width="29.78" height="86.8" style="fill:#fff;stroke:#757575;stroke-linecap:round;stroke-linejoin:round;stroke-width:4.2370347905159px"/>
  <rect x="118.53" y="79.71" width="29.78" height="86.8" style="fill:#fff;stroke:#757575;stroke-linecap:round;stroke-linejoin:round;stroke-width:4.2370347905159px"/>
  <rect x="148.32" y="79.71" width="29.78" height="86.8" style="fill:#fff;stroke:#757575;stroke-linecap:round;stroke-linejoin:round;stroke-width:4.2370347905159px"/>
  <rect x="178.1" y="79.71" width="29.78" height="86.8" style="fill:#fff;stroke:#757575;stroke-linecap:round;stroke-linejoin:round;stroke-width:4.2370347905159px"/>
  <rect x="207.88" y="79.71" width="29.78" height="86.8" style="fill:#fff;stroke:#757575;stroke-linecap:round;stroke-linejoin:round;stroke-width:4.2370347905159px"/>
  <path d="M261.48,144.77H237.67V79.71H29.18v65.06H2.12V59.5a13.94,13.94,0,0,1,14-14H247.54a13.94,13.94,0,0,1,13.94,14Z" style="fill:#fff;stroke:#757575;stroke-linecap:round;stroke-linejoin:round;stroke-width:4.2370347905159px"/>
  <path d="M51.4,79.71H66.54a0,0,0,0,1,0,0v49.11A5.13,5.13,0,0,1,61.41,134H56.52a5.13,5.13,0,0,1-5.13-5.13V79.71a0,0,0,0,1,0,0Z" style="fill:#757575"/>
  <path d="M81.18,79.71H96.32a0,0,0,0,1,0,0v49.11A5.13,5.13,0,0,1,91.19,134H86.31a5.13,5.13,0,0,1-5.13-5.13V79.71A0,0,0,0,1,81.18,79.71Z" style="fill:#757575"/>
  <path d="M140.75,79.71h15.14a0,0,0,0,1,0,0v49.11a5.13,5.13,0,0,1-5.13,5.13h-4.89a5.13,5.13,0,0,1-5.13-5.13V79.71A0,0,0,0,1,140.75,79.71Z" style="fill:#757575"/>
  <path d="M170.53,79.71h15.14a0,0,0,0,1,0,0v49.11a5.13,5.13,0,0,1-5.13,5.13h-4.89a5.13,5.13,0,0,1-5.13-5.13V79.71A0,0,0,0,1,170.53,79.71Z" style="fill:#757575"/>
  <path d="M200.31,79.71h15.14a0,0,0,0,1,0,0v49.11a5.13,5.13,0,0,1-5.13,5.13h-4.89a5.13,5.13,0,0,1-5.13-5.13V79.71A0,0,0,0,1,200.31,79.71Z" style="fill:#757575"/>
  <path
    class="hand"
    d="M124.4,262.1l-13.1-23c-2.3-3.2-1.7-7.6,1.2-10.1l0,0c3.2-2.8,8-2.5,10.8,0.7l3.9,4.4v-45
  		c0-3.6,2.9-6.5,6.5-6.5l0,0c3.6,0,6.5,2.9,6.5,6.5v34.3v-14.4c0-4,3.2-7.2,7.2-7.2h0c4,0,7.2,3.2,7.2,7.2v14.6v-9.8
  		c0-3.7,3-6.6,6.6-6.6h0c3.7,0,6.6,3,6.6,6.6v11v-5.9c0-3.6,2.9-6.5,6.5-6.5h0c3.6,0,6.5,2.9,6.5,6.5v26.7c0,0,0.1,21.6-15.5,21.6"
    style="fill:#fff;stroke:#757575;stroke-linecap:round;stroke-linejoin:round;stroke-width:4.2370347905159px"/>
</svg>
