
<svg width="20px" height="20px" viewBox="0 0 20 20" version="1.1" xmlns="http://www.w3.org/2000/svg" xmlns:xlink="http://www.w3.org/1999/xlink">

	<!-- Generator: Sketch 48.2 (47327) - http://www.bohemiancoding.com/sketch -->
	<desc>Created with Sketch.</desc>
	<defs></defs>
	<g id="Page-1" stroke="none" stroke-width="1" fill="none" fill-rule="evenodd">
		<g id="Close">
			<path d="M18.9704952,1.31327434 L18.3927246,0.725499015 C18.0055667,0.331637093 17.372425,0.3262024 16.9785631,0.71336029 C16.9744822,0.717371726 16.9704358,0.721418117 16.9664244,0.725499015 L9.82978723,7.98571429 L2.6931501,0.725499015 C2.30599221,0.331637093 1.67285055,0.3262024 1.27898863,0.71336029 C1.27490773,0.717371726 1.27086134,0.721418117 1.2668499,0.725499015 L0.689079262,1.31327434 C0.306612723,1.70236368 0.306612723,2.32620775 0.689079262,2.71529708 L7.84978723,10 L0.689079262,17.2847029 C0.306612723,17.6737923 0.306612723,18.2976363 0.689079262,18.6867257 L1.2668499,19.274501 C1.65400779,19.6683629 2.28714945,19.6737976 2.68101137,19.2866397 C2.68509227,19.2826283 2.68913866,19.2785819 2.6931501,19.274501 L9.82978723,12.0142857 L16.9664244,19.274501 C17.3535823,19.6683629 17.9867239,19.6737976 18.3805858,19.2866397 C18.3846667,19.2826283 18.3887131,19.2785819 18.3927246,19.274501 L18.9704952,18.6867257 C19.3529617,18.2976363 19.3529617,17.6737923 18.9704952,17.2847029 L11.8097872,10 L18.9704952,2.71529708 C19.3529617,2.32620775 19.3529617,1.70236368 18.9704952,1.31327434 Z" id="Shape" fill="#000000" fill-rule="nonzero"></path>
			<polygon id="Shape" points="0 0 19.6595745 0 19.6595745 20 0 20"></polygon>
		</g>

	</g>
</svg>
