
<svg width="30px" height="30px" viewBox="0 0 30 30" version="1.1" xmlns="http://www.w3.org/2000/svg" xmlns:xlink="http://www.w3.org/1999/xlink">
	<!-- Generator: Sketch 48.2 (47327) - http://www.bohemiancoding.com/sketch -->
	<desc>Created with Sketch.</desc>
	<defs></defs>
	<g id="Page-1" stroke="none" stroke-width="1" fill="none" fill-rule="evenodd">
		<g id="Add" transform="translate(-1.000000, -1.000000)">
			<polygon id="Shape" points="0 0 32 0 32 32 0 32"></polygon>
			<g id="Shape" transform="translate(2.000000, 2.000000)">
				<g id="path-1-link" fill="#FFFFFF">
					<path d="M14,0.66666667 C6.64,0.66666667 0.66666667,6.64 0.66666667,14 C0.66666667,21.36 6.64,27.3333333 14,27.3333333 C21.36,27.3333333 27.3333333,21.36 27.3333333,14 C27.3333333,6.64 21.36,0.66666667 14,0.66666667 Z" id="path-1"></path>
				</g>
				<path d="M14,0.16666667 C21.6361424,0.16666667 27.8333333,6.36385763 27.8333333,14 C27.8333333,21.6361424 21.6361424,27.8333333 14,27.8333333 C6.36385763,27.8333333 0.16666667,21.6361424 0.16666667,14 C0.16666667,6.36385763 6.36385763,0.16666667 14,0.16666667 Z" stroke-opacity="0.1" stroke="#000000"></path>
			</g>
			<path d="M17.3333333,17.3333333 L17.3333333,22.1666667 C17.3333333,22.442809 17.1094757,22.6666667 16.8333333,22.6666667 L15.1666667,22.6666667 C14.8905243,22.6666667 14.6666667,22.442809 14.6666667,22.1666667 L14.6666667,17.3333333 L9.83333333,17.3333333 C9.55719096,17.3333333 9.33333333,17.1094757 9.33333333,16.8333333 L9.33333333,15.1666667 C9.33333333,14.8905243 9.55719096,14.6666667 9.83333333,14.6666667 L14.6666667,14.6666667 L14.6666667,9.83333333 C14.6666667,9.55719096 14.8905243,9.33333333 15.1666667,9.33333333 L16.8333333,9.33333333 C17.1094757,9.33333333 17.3333333,9.55719096 17.3333333,9.83333333 L17.3333333,14.6666667 L22.1666667,14.6666667 C22.442809,14.6666667 22.6666667,14.8905243 22.6666667,15.1666667 L22.6666667,16.8333333 C22.6666667,17.1094757 22.442809,17.3333333 22.1666667,17.3333333 L17.3333333,17.3333333 Z" id="Path" fill="#16A8F0" fill-rule="nonzero"></path>
		</g>
	</g>
</svg>
