
<svg width="48px" height="48px" viewBox="0 0 48 48" version="1.1" xmlns="http://www.w3.org/2000/svg" xmlns:xlink="http://www.w3.org/1999/xlink">
	<!-- Generator: Sketch 48.2 (47327) - http://www.bohemiancoding.com/sketch -->
	<desc>Created with Sketch.</desc>
	<defs></defs>
	<g id="Page-1" stroke="none" stroke-width="1" fill="none" fill-rule="evenodd">
		<g id="Back-Arrow-Black">
			<polygon id="Shape" fill-opacity="0" fill="#D8D8D8" points="0 0 48 0 48 48 0 48"></polygon>
			<path d="M36,22 L18.66,22 L25.1148642,15.5271054 C25.504459,15.1364224 25.5040179,14.5040179 25.1138787,14.1138787 L23.7071068,12.7071068 C23.3165825,12.3165825 22.6834175,12.3165825 22.2928932,12.7071068 L11.7071068,23.2928932 C11.3165825,23.6834175 11.3165825,24.3165825 11.7071068,24.7071068 L22.2928932,35.2928932 C22.6834175,35.6834175 23.3165825,35.6834175 23.7071068,35.2928932 L25.1138787,33.8861213 C25.5040179,33.4959821 25.504459,32.8635776 25.1148642,32.4728946 L18.66,26 L36,26 C36.5522847,26 37,25.5522847 37,25 L37,23 C37,22.4477153 36.5522847,22 36,22 Z" id="Shape" fill="#000000" fill-rule="nonzero"></path>
		</g>
	</g>
</svg>
