
<svg width="60px" height="60px" viewBox="0 0 60 60" version="1.1" xmlns="http://www.w3.org/2000/svg" xmlns:xlink="http://www.w3.org/1999/xlink">
	<!-- Generator: Sketch 48.2 (47327) - http://www.bohemiancoding.com/sketch -->
	<desc>Created with Sketch.</desc>
	<defs></defs>
	<g id="Page-1" stroke="none" stroke-width="1" fill="none" fill-rule="evenodd">
		<g id="Save">
			<g id="Icon-24px" transform="translate(15.000000, 15.000000)">
				<polygon id="Shape" points="0 0 30 0 30 30 0 30"></polygon>
				<path d="M10.3370619,20.7792692 L4.82243511,15.2646424 C4.43288622,14.8750935 3.80164749,14.8739783 3.41072455,15.2621482 L2.71211282,15.9558402 C2.32021103,16.3449821 2.31797371,16.9781431 2.70711563,17.3700449 C2.70794554,17.3708807 2.70877694,17.371715 2.70960981,17.3725479 L9.62995511,24.2928932 C10.0204794,24.6834175 10.6536444,24.6834175 11.0441687,24.2928932 L27.5270468,7.81001506 C27.9175711,7.41949077 27.9175711,6.78632579 27.5270468,6.3958015 L26.838018,5.70744087 C26.4476242,5.31704702 25.8147168,5.31689753 25.4241386,5.70710694 L10.3370619,20.7792692 Z" id="Shape" fill="#666" fill-rule="nonzero"></path>
			</g>
		</g>
	</g>
</svg>
