
<svg width="60px" height="60px" viewBox="0 0 60 60" version="1.1" xmlns="http://www.w3.org/2000/svg" xmlns:xlink="http://www.w3.org/1999/xlink">
	<!-- Generator: Sketch 48.2 (47327) - http://www.bohemiancoding.com/sketch -->
	<desc>Created with Sketch.</desc>
	<defs>
		<polygon id="path-1" points="0 18.6985333 22.1481481 18.6985333 19.9865224 15.0722073 11.0740741 0.120755556"></polygon>
		<path d="M0,37.5632184 L33.3217435,37.5632184 L33.3217435,0.12491954 L0,0.12491954 L0,37.5632184 Z M9.76671795,26.5039081 L20.2352308,12.2884138 C20.1332308,11.973931 20.0826666,11.7293333 20.0826666,11.5563678 C20.0826666,10.5491494 20.8986666,9.73411495 21.9073334,9.73411495 C22.9142565,9.73411495 23.7328718,10.5491494 23.7328718,11.5563678 C23.7328718,12.5627126 22.9142565,13.3777471 21.9073334,13.3777471 C21.8384615,13.3777471 21.7722051,13.3751264 21.7059488,13.3681379 L11.2383077,27.581885 C11.0578462,27.8256092 10.7814872,27.9540229 10.5007692,27.9540229 C10.3133333,27.9540229 10.1250256,27.8963678 9.962,27.7775633 C9.55574359,27.4788046 9.46856411,26.9083678 9.76671795,26.5039081 Z" id="path-3"></path>
	</defs>
	<g id="Page-1" stroke="none" stroke-width="1" fill="none" fill-rule="evenodd">
		<g id="icon-meter" transform="translate(16.000000, 13.000000)">
			<path d="M20.4178445,11.2545772 C20.4178445,11.4289451 20.463781,11.6486486 20.5326856,11.8953793 L10.0521201,25.9136879 C10.0309187,25.9415867 10.0185512,25.9712293 10,26 L13.380742,26 L22.7217315,13.5082825 C23.979682,13.5013078 25,12.4960767 25,11.2545772 C25,10.0095902 23.9734982,9 22.7093639,9 C21.4434629,9 20.4178445,10.0087184 20.4178445,11.2545772 Z" id="Fill-1" fill="#666" fill-rule="nonzero"></path>
			<g id="Group-5" transform="translate(3.000000, 6.000000)">
				<g id="Fill-3-Clipped">
					<mask id="mask-2" fill="white">
						<use xlink:href="#path-1"></use>
					</mask>
					<g id="path-1"></g>
					<polygon id="Fill-3" fill="#666" fill-rule="nonzero" mask="url(#mask-2)" points="-4.25925925 22.9207555 26.4074075 22.9207555 26.4074075 -4.10146667 -4.25925925 -4.10146667"></polygon>
				</g>
			</g>
			<polygon id="Stroke-6" stroke="#666" stroke-width="2" stroke-linecap="round" stroke-linejoin="round" points="26 25 14.5000001 6 3 25"></polygon>
			<g id="Group-10">
				<g id="Stroke-8-Clipped">
					<mask id="mask-4" fill="white">
						<use xlink:href="#path-3"></use>
					</mask>
					<g id="path-3"></g>
					<path d="M20.2351435,12.2878897 L9.76663077,26.503384 C9.46847692,26.9087172 9.55565641,27.4782805 9.96191282,27.7770391 C10.3681692,28.0749241 10.9383231,27.9875678 11.2382205,27.5822345 L21.7058615,13.3676138 C21.772118,13.3746023 21.8392462,13.3780966 21.9072462,13.3780966 C22.9141692,13.3780966 23.7327846,12.5621885 23.7327846,11.5558437 C23.7327846,10.5494988 22.9141692,9.73446436 21.9072462,9.73446436 C20.8994512,9.73446436 20.0825795,10.5494988 20.0825795,11.5558437 C20.0825795,11.7296828 20.1331435,11.9734069 20.2351435,12.2878897 Z" id="Stroke-8" stroke="#FFFFFF" stroke-width="2" mask="url(#mask-4)"></path>
				</g>
			</g>
		</g>
	</g>
</svg>
