
<svg width="21px" height="21px" viewBox="0 0 21 21" version="1.1" xmlns="http://www.w3.org/2000/svg" xmlns:xlink="http://www.w3.org/1999/xlink">
	<!-- Generator: Sketch 48.2 (47327) - http://www.bohemiancoding.com/sketch -->
	<desc>Created with Sketch.</desc>
	<defs></defs>
	<g id="Page-1" stroke="none" stroke-width="1" fill="none" fill-rule="evenodd">
		<g id="Start-over">
			<g transform="translate(10.500000, 10.500000) scale(-1, 1) translate(-10.500000, -10.500000) ">
				<circle id="Oval" fill="#33B3F2" fill-rule="nonzero" cx="10.5" cy="10.5" r="10.5"></circle>
				<g id="Startover">
					<path d="M10.4965604,5 C7.45590994,5 5,7.46125 5,10.5 C5,13.53875 7.45590994,16 10.4965604,16 C13.0625391,16 15.2020013,14.246875 15.8142589,11.875 L14.3833646,11.875 C13.819262,13.476875 12.2920575,14.625 10.4965604,14.625 C8.2195122,14.625 6.36898061,12.775625 6.36898061,10.5 C6.36898061,8.224375 8.2195122,6.375 10.4965604,6.375 C11.6385241,6.375 12.6566604,6.849375 13.3996248,7.59875 L11.6115892,9.38566805 C11.5139276,9.4832686 11.5138781,9.64155984 11.6114787,9.73922143 C11.6583672,9.78613933 11.7219794,9.8125 11.7883106,9.8125 L15.75,9.8125 C15.8880712,9.8125 16,9.70057119 16,9.5625 L16,5.60328667 C16,5.46521548 15.8880712,5.35328667 15.75,5.35328667 C15.683723,5.35328667 15.6201582,5.37960443 15.5732786,5.42645473 L14.3833646,6.615625 C13.3858662,5.61875 12.0168856,5 10.4965604,5 Z" id="Shape" fill="#FFFFFF" fill-rule="nonzero" transform="translate(10.500000, 10.500000) scale(-1, 1) translate(-10.500000, -10.500000) "></path>
					<polygon id="Shape" points="0 0 21 0 21 21 0 21"></polygon>
				</g>
			</g>
		</g>
	</g>
</svg>
