
<svg width="60px" height="60px" viewBox="0 0 60 60" version="1.1" xmlns="http://www.w3.org/2000/svg" xmlns:xlink="http://www.w3.org/1999/xlink">
	<!-- Generator: Sketch 48.2 (47327) - http://www.bohemiancoding.com/sketch -->
	<desc>Created with Sketch.</desc>
	<defs></defs>
	<g id="Page-1" stroke="none" stroke-width="1" fill="none" fill-rule="evenodd">
		<g id="icon-settings-gray" transform="translate(17.000000, 17.000000)" fill="#666" fill-rule="nonzero">
			<path d="M22.375,13 C22.375,12.575 22.3375,12.175 22.2875,11.775 L24.925,9.7125 C25.1625,9.525 25.225,9.1875 25.075,8.9125 L22.575,4.5875 C22.425,4.3125 22.0875,4.2125 21.8125,4.3125 L18.7,5.5625 C18.05,5.0625 17.35,4.65 16.5875,4.3375 L16.1125,1.025 C16.075,0.725 15.8125,0.5 15.5,0.5 L10.5,0.5 C10.1875,0.5 9.925,0.725 9.8875,1.025 L9.4125,4.3375 C8.65,4.65 7.95,5.075 7.3,5.5625 L4.1875,4.3125 C3.9,4.2 3.575,4.3125 3.425,4.5875 L0.925,8.9125 C0.7625,9.1875 0.8375,9.525 1.075,9.7125 L3.7125,11.775 C3.6625,12.175 3.625,12.5875 3.625,13 C3.625,13.4125 3.6625,13.825 3.7125,14.225 L1.075,16.2875 C0.8375,16.475 0.775,16.8125 0.925,17.0875 L3.425,21.4125 C3.575,21.6875 3.9125,21.7875 4.1875,21.6875 L7.3,20.4375 C7.95,20.9375 8.65,21.35 9.4125,21.6625 L9.8875,24.975 C9.925,25.275 10.1875,25.5 10.5,25.5 L15.5,25.5 C15.8125,25.5 16.075,25.275 16.1125,24.975 L16.5875,21.6625 C17.35,21.35 18.05,20.925 18.7,20.4375 L21.8125,21.6875 C22.1,21.8 22.425,21.6875 22.575,21.4125 L25.075,17.0875 C25.225,16.8125 25.1625,16.475 24.925,16.2875 L22.2875,14.225 C22.3375,13.825 22.375,13.425 22.375,13 Z M13,17.375 C10.5875,17.375 8.625,15.4125 8.625,13 C8.625,10.5875 10.5875,8.625 13,8.625 C15.4125,8.625 17.375,10.5875 17.375,13 C17.375,15.4125 15.4125,17.375 13,17.375 Z" id="Shape"></path>
		</g>
	</g>
</svg>
