
<svg width="60px" height="60px" viewBox="0 0 60 60" version="1.1" xmlns="http://www.w3.org/2000/svg" xmlns:xlink="http://www.w3.org/1999/xlink">
	<!-- Generator: Sketch 48.2 (47327) - http://www.bohemiancoding.com/sketch -->
	<desc>Created with Sketch.</desc>
	<defs></defs>
	<g id="Page-1" stroke="none" stroke-width="1" fill="none" fill-rule="evenodd">
		<g id="Refresh">
			<g id="ic_refresh" transform="translate(30.000000, 30.000000) scale(-1, 1) translate(-30.000000, -30.000000) translate(15.000000, 15.000000)">
				<g id="Icon-24px">
					<path d="M15,5 C9.475,5 5.0125,9.475 5.0125,15 C5.0125,20.525 9.475,25 15,25 C19.6625,25 23.55,21.8125 24.6625,17.5 L22.0625,17.5 C21.0375,20.4125 18.2625,22.5 15,22.5 C10.8625,22.5 7.5,19.1375 7.5,15 C7.5,10.8625 10.8625,7.5 15,7.5 C17.075,7.5 18.925,8.3625 20.275,9.725 L17.1035534,12.8964466 C16.9082912,13.0917088 16.9082912,13.4082912 17.1035534,13.6035534 C17.1973216,13.6973216 17.3244985,13.75 17.4571068,13.75 L24.5,13.75 C24.7761424,13.75 25,13.5261424 25,13.25 L25,6.20710678 C25,5.93096441 24.7761424,5.70710678 24.5,5.70710678 C24.3673918,5.70710678 24.2402148,5.7597852 24.1464466,5.85355339 L22.0625,7.9375 C20.25,6.125 17.7625,5 15,5 Z" id="Shape" fill="#666" fill-rule="nonzero"></path>
					<polygon id="Shape" points="0 0 30 0 30 30 0 30"></polygon>
				</g>
			</g>
		</g>
	</g>
</svg>
