
<svg width="60px" height="60px" viewBox="0 0 60 60" version="1.1" xmlns="http://www.w3.org/2000/svg" xmlns:xlink="http://www.w3.org/1999/xlink">
	<!-- Generator: Sketch 48.2 (47327) - http://www.bohemiancoding.com/sketch -->
	<desc>Created with Sketch.</desc>
	<defs></defs>
	<g id="Page-1" stroke="none" stroke-width="1" fill="none" fill-rule="evenodd">
		<g id="Mic">
			<g id="ic_mic" transform="translate(15.000000, 16.250000)">
				<g id="Icon-24px">
					<polygon id="Shape" points="0 0 30 0 30 30 0 30"></polygon>
					<path d="M15,18.1578947 C17.1342857,18.1578947 18.8442857,16.4652632 18.8442857,14.3684211 L18.8571429,6.78947368 C18.8571429,4.69263158 17.1342857,3 15,3 C12.8657143,3 11.1428571,4.69263158 11.1428571,6.78947368 L11.1428571,14.3684211 C11.1428571,16.4652632 12.8657143,18.1578947 15,18.1578947 Z M15,20.8105263 C11.4514286,20.8105263 8.18571429,18.1578947 8.18571429,14.3684211 L7.06491089,14.3684211 L6,14.3684211 C6,18.6757895 9.49714286,22.2378947 13.7142857,22.8568421 L13.7142857,27 L16.2857143,27 L16.2857143,22.8568421 C20.5028571,22.2505263 24,18.6884211 24,14.3684211 L21.8142857,14.3684211 C21.8142857,18.1578947 18.5485714,20.8105263 15,20.8105263 Z" id="Shape" fill="#666" fill-rule="nonzero"></path>
				</g>
			</g>
		</g>
	</g>
</svg>
