<svg width="30px" height="30px" viewBox="0 0 30 30" version="1.1" xmlns="http://www.w3.org/2000/svg" xmlns:xlink="http://www.w3.org/1999/xlink">
	<!-- Generator: Sketch 48.2 (47327) - http://www.bohemiancoding.com/sketch -->
	<desc>Created with Sketch.</desc>
	<defs></defs>
	<g id="Page-1" stroke="none" stroke-width="1" fill="none" fill-rule="evenodd">
		<g id="Acces.-Control-Icon" transform="translate(-9.000000, -9.000000)">
			<rect id="Rectangle-4" x="0" y="0" width="48" height="48"></rect>
			<path d="M13.9944117,22.4868756 L18.6842507,22.4868756 C18.9603931,22.4868756 19.1842507,22.7107332 19.1842507,22.9868756 L19.1842507,24.8176969 C19.1842507,25.0938393 18.9603931,25.3176969 18.6842507,25.3176969 L13.9944117,25.3176969 L13.9944117,27.8850186 C13.9944117,28.0176268 13.9417332,28.1448038 13.847965,28.238572 C13.6527029,28.4338341 13.3361204,28.4338341 13.1408583,28.238572 L9.15812596,24.2558397 C8.96286381,24.0605775 8.96286381,23.743995 9.15812596,23.5487329 L13.1408583,19.5660006 C13.2346265,19.4722324 13.3618034,19.419554 13.4944117,19.419554 C13.770554,19.419554 13.9944117,19.6434116 13.9944117,19.919554 L13.9944117,22.4868756 Z M34.0055883,25.3176969 L29.3157493,25.3176969 C29.0396069,25.3176969 28.8157493,25.0938393 28.8157493,24.8176969 L28.8157493,22.9868756 C28.8157493,22.7107332 29.0396069,22.4868756 29.3157493,22.4868756 L34.0055883,22.4868756 L34.0055883,19.919554 C34.0055883,19.6434116 34.229446,19.419554 34.5055883,19.419554 C34.6381966,19.419554 34.7653735,19.4722324 34.8591417,19.5660006 L38.841874,23.5487329 C39.0371362,23.743995 39.0371362,24.0605775 38.841874,24.2558397 L34.8591417,28.238572 C34.6638796,28.4338341 34.3472971,28.4338341 34.152035,28.238572 C34.0582668,28.1448038 34.0055883,28.0176268 34.0055883,27.8850186 L34.0055883,25.3176969 Z M22.4868756,34.0055883 L22.4868756,29.3157493 C22.4868756,29.0396069 22.7107332,28.8157493 22.9868756,28.8157493 L24.8176969,28.8157493 C25.0938393,28.8157493 25.3176969,29.0396069 25.3176969,29.3157493 L25.3176969,34.0055883 L27.8850186,34.0055883 C28.0176268,34.0055883 28.1448038,34.0582668 28.238572,34.152035 C28.4338341,34.3472971 28.4338341,34.6638796 28.238572,34.8591417 L24.2558397,38.841874 C24.0605775,39.0371362 23.743995,39.0371362 23.5487329,38.841874 L19.5660006,34.8591417 C19.4722324,34.7653735 19.419554,34.6381966 19.419554,34.5055883 C19.419554,34.229446 19.6434116,34.0055883 19.919554,34.0055883 L22.4868756,34.0055883 Z M25.3176969,13.9944117 L25.3176969,18.6842507 C25.3176969,18.9603931 25.0938393,19.1842507 24.8176969,19.1842507 L22.9868756,19.1842507 C22.7107332,19.1842507 22.4868756,18.9603931 22.4868756,18.6842507 L22.4868756,13.9944117 L19.919554,13.9944117 C19.6434116,13.9944117 19.419554,13.770554 19.419554,13.4944117 C19.419554,13.3618034 19.4722324,13.2346265 19.5660006,13.1408583 L23.5487329,9.15812596 C23.743995,8.96286381 24.0605775,8.96286381 24.2558397,9.15812596 L28.238572,13.1408583 C28.4338341,13.3361204 28.4338341,13.6527029 28.238572,13.847965 C28.1448038,13.9417332 28.0176268,13.9944117 27.8850186,13.9944117 L25.3176969,13.9944117 Z" id="Shape" fill="#666" fill-rule="nonzero"></path>

		</g>
	</g>
</svg>
