
<svg width="182px" height="132px" viewBox="0 0 182 132" version="1.1" xmlns="http://www.w3.org/2000/svg" xmlns:xlink="http://www.w3.org/1999/xlink">

	<g id="07---Error-States" stroke="none" stroke-width="1" fill="none" fill-rule="evenodd">
		<g id="Song-Maker----Error-1" transform="translate(-197.000000, -371.000000)" fill="#999999">
			<g id="Group" transform="translate(50.000000, 371.000000)">
				<g id="Page-1" transform="translate(147.000000, 0.000000)">
					<path d="M22.9017,0 C10.2597,0 0.0007,10.26 0.0007,22.901 C0.0007,35.543 10.2597,45.803 22.9017,45.803 C35.5447,45.803 45.8037,35.543 45.8037,22.901 C45.8037,10.26 35.5447,0 22.9017,0" id="Fill-1"></path>
					<path d="M158.7348,0 C146.0928,0 135.8328,10.26 135.8328,22.901 C135.8328,35.543 146.0928,45.803 158.7348,45.803 C171.3768,45.803 181.6358,35.543 181.6358,22.901 C181.6358,10.26 171.3768,0 158.7348,0" id="Fill-3"></path>
					<path d="M90.8178,100.6064 C113.1118,100.6064 132.4808,113.1034 142.3188,131.4694 L162.3998,131.4694 C151.3348,102.7184 123.4678,82.3064 90.8178,82.3064 C58.1688,82.3064 30.3018,102.7184 19.2368,131.4694 L39.3178,131.4694 C49.1558,113.1034 68.5248,100.6064 90.8178,100.6064" id="Fill-5"></path>
				</g>
			</g>
		</g>
	</g>
</svg>
