
<svg width="60px" height="60px" viewBox="0 0 60 60" version="1.1" xmlns="http://www.w3.org/2000/svg" xmlns:xlink="http://www.w3.org/1999/xlink">
	<!-- Generator: Sketch 48.2 (47327) - http://www.bohemiancoding.com/sketch -->
	<desc>Created with Sketch.</desc>
	<defs></defs>
	<g id="Page-1" stroke="none" stroke-width="1" fill="none" fill-rule="evenodd">
		<g id="Woodblock">
			<g id="Group" transform="translate(15.000000, 23.000000)">
				<g id="block" fill="#16A8F0" fill-rule="nonzero">
					<g id="Mask">
						<path d="M29.3988868,0 L0.601113173,0 C0.26716141,0 0,0.266842564 0,0.600395769 L0,14.3996042 C0,14.7331574 0.26716141,15 0.601113173,15 L29.3988868,15 C29.7328386,15 30,14.7331574 30,14.3996042 L30,0.600395769 C30,0.266842564 29.7328386,0 29.3988868,0 Z" id="path-2"></path>
					</g>
				</g>
				<g id="Fill-2" transform="translate(1.000000, 5.000000)">
					<g id="path-4-link" transform="translate(1.000000, 1.000000)" fill="#16A8F0">
						<path d="M12.7962637,3.06392112 L0.21278048,20.1167718 C-0.14554269,20.6029982 -0.04066789,21.2865985 0.44729377,21.645119 C0.93525487,22.002168 1.62129492,21.8976661 1.98109435,21.4114397 L14.5645778,4.358589 C14.6432348,4.3672984 14.7248041,4.3716531 14.8063734,4.3716531 C16.0168057,4.3716531 17,3.39340397 17,2.18582657 C17,0.97824916 16.0168057,0 14.8063734,0 C13.5944868,0 12.6127468,0.97824916 12.6127468,2.18582657 C12.6127468,2.39386181 12.6739191,2.68655999 12.7962637,3.06392112 Z" id="path-4"></path>
					</g>
					<path d="M13.2448699,3.96906115 C13.1575447,3.6595415 13.1127468,3.40114716 13.1127468,3.18582657 C13.1127468,1.7017073 14.3187424,0.5 15.8063734,0.5 C17.2930015,0.5 18.5,1.70215615 18.5,3.18582657 C18.5,4.66916397 17.2935433,5.8711135 15.8073744,5.871653 L3.3830185,22.7088569 C2.85960953,23.4161823 1.86204364,23.5681562 1.1512459,23.0480528 C0.44075166,22.5260308 0.28779227,21.5291245 0.81045799,20.8198937 L13.2448699,3.96906115 Z" id="Shape" stroke="#FFFFFF"></path>
				</g>
			</g>
		</g>
	</g>
</svg>
