
<svg width="60px" height="60px" viewBox="0 0 60 60" version="1.1" xmlns="http://www.w3.org/2000/svg" xmlns:xlink="http://www.w3.org/1999/xlink">
	<!-- Generator: Sketch 48.2 (47327) - http://www.bohemiancoding.com/sketch -->
	<desc>Created with Sketch.</desc>
	<defs></defs>
	<g id="Page-1" stroke="none" stroke-width="1" fill="none" fill-rule="evenodd">
		<g id="Conga">
			<g id="Group" transform="translate(18.000000, 14.000000)">
				<g id="Rectangle-2" transform="translate(1.000000, 3.000000)">
					<g id="path-2-link">
						<path d="M2.85293915,0.77777778 L20.1389597,0.77779048 C21.2435222,0.77779048 22.138947,1.67321529 22.138947,2.77777778 C22.138947,2.78377731 22.13892,2.78977682 22.138866,2.79577611 C22.0854013,8.7365726 21.7925193,13.928104 21.2602199,18.3703704 C20.7036891,23.0148594 18.8386024,27.1133254 15.6649601,30.6657684 L15.6649758,30.6657825 C15.2855318,31.0905164 14.7430048,31.3333333 14.1734641,31.3333333 L8.90625282,31.3333402 C8.29049945,31.3333402 7.70907037,31.0497056 7.33004574,30.5644299 C4.15532229,26.4997434 2.28964319,22.4350569 1.73300843,18.3703704 C1.19599475,14.4489619 0.902658,9.2565605 0.85299818,2.79316628 L0.85297571,2.79316645 C0.84448919,1.68861714 1.73302364,0.78632333 2.83757295,0.77783681 C2.84269492,0.77779745 2.84781703,0.77777778 2.85293915,0.77777778 Z" id="path-2"></path>
					</g>
					<path d="M2.85293915,1.77777778 C2.84909752,1.7777827 2.84909752,1.7777827 2.84525596,1.77780729 C2.29297676,1.78205059 1.84871408,2.23319638 1.85296867,2.78548326 C1.90232662,9.2095883 2.19339374,14.3618146 2.72376145,18.2346926 C3.25483819,22.1127481 5.04649286,26.0161603 8.11814658,29.9488837 C8.30765954,30.1915224 8.59837508,30.3333402 8.90625152,30.3333402 L14.1734641,30.3333333 C14.4582344,30.3333333 14.7294864,30.2119272 14.9192121,29.9995403 C17.9570146,26.5991507 19.7352879,22.6914542 20.2673227,18.2513954 C20.7949014,13.8485245 21.0857531,8.6929823 21.1389065,2.78677689 C21.1389402,2.78227739 21.1389402,2.78227739 21.138947,2.77777778 C21.138947,2.22550004 20.6912374,1.77779048 20.1389589,1.77779048 L2.85293842,1.77777778 L2.85293915,1.77777778 Z" id="Shape" stroke="#16A8F0" stroke-width="2"></path>
				</g>
				<rect id="Rectangle" fill="#16A8F0" fill-rule="nonzero" x="7.40740741" y="4.7037037" width="1.85185185" height="5.55555556" rx="0.925925925"></rect>
				<rect id="Rectangle-Copy" fill="#16A8F0" fill-rule="nonzero" x="15.7407407" y="4.7037037" width="1.85185185" height="5.55555556" rx="0.925925925"></rect>
				<g id="Rectangle-3-Copy" transform="translate(2.000000, 0.000000)">
					<g id="path-3-link" fill="#FFFFFF">
						<rect id="path-3" x="0" y="0" width="21.2962963" height="5.63000011" rx="2"></rect>
					</g>
					<rect id="Rectangle-path" stroke="#16A8F0" stroke-width="2" x="1" y="1" width="19.2962963" height="3.63000011" rx="1.81500005"></rect>
				</g>
				<g id="Rectangle-3" transform="translate(0.000000, 3.000000)">
					<g id="path-4-link" fill="#FFFFFF">
						<rect id="path-4" x="0" y="0.77777778" width="25" height="1.85185185" rx="0.925925925"></rect>
					</g>
					<rect id="Rectangle-path" stroke="#16A8F0" stroke-width="2" x="1" y="1.77777778" width="23" height="1" rx="0.5"></rect>
				</g>
			</g>
		</g>
	</g>
</svg>
