
<svg width="60px" height="60px" viewBox="0 0 60 60" version="1.1" xmlns="http://www.w3.org/2000/svg" xmlns:xlink="http://www.w3.org/1999/xlink">
	<!-- Generator: Sketch 48.2 (47327) - http://www.bohemiancoding.com/sketch -->
	<desc>Created with Sketch.</desc>
	<defs></defs>
	<g id="Page-1" stroke="none" stroke-width="1" fill="none" fill-rule="evenodd">
		<g id="Snare-Drum">
			<g id="Drum" transform="translate(15.000000, 16.000000)" fill="#16A8F0" fill-rule="nonzero">
				<path d="M15.0373868,27.6 C7.45638676,27.6 1.28778646,21.4314003 1.28778646,13.8504003 C1.28778646,6.2694003 7.45638676,0.1008003 15.0373868,0.1008003 C22.6183868,0.1008003 28.7869868,6.2694003 28.7869868,13.8504003 C28.7869868,21.4314003 22.6183868,27.6 15.0373868,27.6 Z M15.0373868,2.6004003 C8.83458676,2.6004003 3.78738676,7.6476003 3.78738676,13.8504003 C3.78738676,20.0544003 8.83458676,25.1004003 15.0373868,25.1004003 C21.2401868,25.1004003 26.2873868,20.0544003 26.2873868,13.8504003 C26.2862138,7.6476003 21.2401868,2.6004003 15.0373868,2.6004003 Z" id="Page-1"></path>
				<path d="M8.73753376,26.8911903 C8.35902376,26.8911903 7.98519376,26.7927513 7.64886376,26.5970493 C7.14612376,26.3087673 6.78519376,25.8388593 6.63402376,25.2739893 C6.48285076,24.7114893 6.56019676,24.1232193 6.85199176,23.6193093 C7.19651176,23.0216493 7.96058176,22.8165693 8.55941176,23.1646293 C8.87816176,23.3486133 9.08558176,23.6532993 9.15707176,23.9872893 C9.48284176,23.8794753 9.84848176,23.9087733 10.1684018,24.0915873 C10.7672318,24.4349373 10.9734818,25.2001773 10.6289618,25.7990073 C10.3395098,26.3040873 9.86723176,26.6650173 9.30473176,26.8161873 C9.11840476,26.8665783 8.92856176,26.8911873 8.73872176,26.8911873 L8.73753376,26.8911903 Z" id="Path"></path>
				<path d="M21.2635868,26.8911003 C21.0749138,26.8911003 20.8839068,26.8664913 20.6964068,26.8161003 C20.1327368,26.6649273 19.6628168,26.3040003 19.3698368,25.7989203 C19.0264868,25.2000903 19.2327278,24.4348503 19.8303968,24.0915003 C20.1491468,23.9086863 20.5171268,23.8805643 20.8417268,23.9860323 C20.9132108,23.6520423 21.1206338,23.3485323 21.4382168,23.1645423 C22.0382168,22.8188523 22.8022868,23.0227443 23.1468068,23.6180523 C23.4386048,24.1231323 23.5171268,24.7102323 23.3671208,25.2727323 C23.2159478,25.8364023 22.8550208,26.3063223 22.3499408,26.5993023 C22.0136108,26.7914883 21.6409508,26.8911003 21.2647808,26.8911003 L21.2635868,26.8911003 Z" id="Path"></path>
				<path d="M27.5190338,16.0489503 C26.8276238,16.0489503 26.2686338,15.4887903 26.2686338,14.7985503 C26.2686338,14.4294003 26.4291818,14.0977803 26.6834738,13.8680703 C26.4280058,13.6395543 26.2686338,13.3067403 26.2686338,12.9375903 C26.2686338,12.2473503 26.8276238,11.6871903 27.5190338,11.6871903 C28.7213738,11.6871903 29.6987138,12.6645303 29.6987138,13.8668703 C29.6987138,15.0692103 28.7213738,16.0465503 27.5190338,16.0465503 L27.5190338,16.0489503 Z" id="Path"></path>
				<path d="M7.93578676,4.7427003 C7.50336676,4.7427003 7.08384676,4.5188733 6.85179676,4.1181003 C6.55999876,3.6141903 6.48264676,3.0259203 6.63382876,2.4634203 C6.78500176,1.9009203 7.14475876,1.4310003 7.64866876,1.1391903 C8.15257876,0.8473923 8.73850876,0.7688703 9.30334876,0.9212223 C9.86584876,1.0723953 10.3357688,1.4333223 10.6275788,1.9372323 C10.9709288,2.5360623 10.7658608,3.3001323 10.1670188,3.6446523 C9.84943876,3.8286363 9.48382876,3.8579343 9.15685876,3.7501203 C9.08537476,4.0852803 8.87795176,4.3899603 8.55802876,4.5751203 C8.36232676,4.6887933 8.14669876,4.7426973 7.93459876,4.7426973 L7.93578676,4.7427003 Z" id="Path"></path>
				<path d="M22.0629338,4.7427903 C21.8508248,4.7427903 21.6351938,4.6888833 21.4383338,4.5740403 C21.1195838,4.3900563 20.9121638,4.0853703 20.8406738,3.7502103 C20.5172438,3.8580243 20.1492638,3.8287263 19.8293438,3.6447423 C19.2305138,3.3002223 19.0242638,2.5361523 19.3711538,1.9373223 C19.6606058,1.4322423 20.1317138,1.0713123 20.6953838,0.9213123 C21.2578838,0.7689693 21.8438138,0.8474853 22.3500638,1.1392803 C22.8528038,1.4287323 23.2137338,1.9010103 23.3649038,2.4646803 C23.5149038,3.0271803 23.4375608,3.6142803 23.1445928,4.1193603 C22.9149038,4.5189603 22.4953628,4.7427903 22.0629428,4.7427903 L22.0629338,4.7427903 Z" id="Path"></path>
				<path d="M2.48073526,16.0489503 C1.27839526,16.0489503 0.301055261,15.0716103 0.301055261,13.8692703 C0.301055261,12.6681003 1.27839526,11.6895903 2.48073526,11.6895903 C3.17097676,11.6895903 3.73113676,12.2497503 3.73113676,12.9399903 C3.73113676,13.3091403 3.57058876,13.6407603 3.31629676,13.8704703 C3.57176476,14.0989863 3.73113676,14.4306303 3.73113676,14.8009503 C3.73113676,15.4911903 3.17214676,16.0513503 2.48073526,16.0513503 L2.48073526,16.0489503 Z" id="Path"></path>
			</g>
			<g id="Fill-2" transform="translate(11.000000, 26.000000)">
				<g id="path-2-link" transform="translate(1.000000, 1.000000)" fill="#16A8F0">
					<path d="M12.7962637,3.0639211 L0.2127805,20.1167718 C-0.1455427,20.6029982 -0.0406679,21.2865985 0.4472938,21.645119 C0.9352549,22.002168 1.6212949,21.8976661 1.9810944,21.4114397 L14.5645778,4.358589 C14.6432348,4.3672984 14.7248041,4.3716531 14.8063734,4.3716531 C16.0168057,4.3716531 17,3.393404 17,2.1858266 C17,0.9782492 16.0168057,0 14.8063734,0 C13.5944868,0 12.6127468,0.9782492 12.6127468,2.1858266 C12.6127468,2.3938618 12.6739191,2.68656 12.7962637,3.0639211 Z" id="path-2"></path>
				</g>
				<path d="M13.2448699,3.9690611 C13.1575447,3.6595415 13.1127468,3.4011472 13.1127468,3.1858266 C13.1127468,1.7017073 14.3187424,0.5 15.8063734,0.5 C17.2930015,0.5 18.5,1.7021561 18.5,3.1858266 C18.5,4.669164 17.2935433,5.8711135 15.8073744,5.871653 L3.3830185,22.7088569 C2.8596095,23.4161823 1.8620436,23.5681562 1.1512459,23.0480528 C0.4407517,22.5260308 0.2877923,21.5291245 0.810458,20.8198937 L13.2448699,3.9690611 Z" id="Shape" stroke="#FFFFFF"></path>
			</g>
			<g id="Fill-2-Copy" transform="translate(39.500000, 38.000000) scale(-1, 1) translate(-39.500000, -38.000000) translate(30.000000, 26.000000)">
				<g id="path-3-link" transform="translate(1.000000, 1.000000)" fill="#16A8F0">
					<path d="M12.7962637,3.0639211 L0.2127805,20.1167718 C-0.1455427,20.6029982 -0.0406679,21.2865985 0.4472938,21.645119 C0.9352549,22.002168 1.6212949,21.8976661 1.9810944,21.4114397 L14.5645778,4.358589 C14.6432348,4.3672984 14.7248041,4.3716531 14.8063734,4.3716531 C16.0168057,4.3716531 17,3.393404 17,2.1858266 C17,0.9782492 16.0168057,0 14.8063734,0 C13.5944868,0 12.6127468,0.9782492 12.6127468,2.1858266 C12.6127468,2.3938618 12.6739191,2.68656 12.7962637,3.0639211 Z" id="path-3"></path>
				</g>
				<path d="M13.2448699,3.9690611 C13.1575447,3.6595415 13.1127468,3.4011472 13.1127468,3.1858266 C13.1127468,1.7017073 14.3187424,0.5 15.8063734,0.5 C17.2930015,0.5 18.5,1.7021561 18.5,3.1858266 C18.5,4.669164 17.2935433,5.8711135 15.8073744,5.871653 L3.3830185,22.7088569 C2.8596095,23.4161823 1.8620436,23.5681562 1.1512459,23.0480528 C0.4407517,22.5260308 0.2877923,21.5291245 0.810458,20.8198937 L13.2448699,3.9690611 Z" id="Shape" stroke="#FFFFFF"></path>
			</g>
		</g>
	</g>
</svg>
