
<svg width="60px" height="60px" viewBox="0 0 60 60" version="1.1" xmlns="http://www.w3.org/2000/svg" xmlns:xlink="http://www.w3.org/1999/xlink">
	<!-- Generator: Sketch 48.2 (47327) - http://www.bohemiancoding.com/sketch -->
	<desc>Created with Sketch.</desc>
	<defs></defs>
	<g id="Page-1" stroke="none" stroke-width="1" fill="none" fill-rule="evenodd">
		<g id="Drum-machine" fill-rule="nonzero">
			<g id="XMLID_1145_" transform="translate(13.000000, 18.000000)" fill="#16A8F0">
				<path d="M31.4,0.0222222222 L0.655555556,0.0222222222 C0.322222222,0.0222222222 0.0555555556,0.288888889 0.0555555556,0.622222222 L0.0555555556,23.7111111 C0.0555555556,24.0444444 0.322222222,24.3111111 0.655555556,24.3111111 L31.4,24.3111111 C31.7333333,24.3111111 32,24.0444444 32,23.7111111 L32,0.622222222 C32,0.288888889 31.7333333,0.0222222222 31.4,0.0222222222 Z M13.0888889,2.84444444 C13.8555556,2.84444444 14.4666667,3.46666667 14.4666667,4.22222222 C14.4666667,4.97777778 13.8444444,5.6 13.0888889,5.6 C12.3333333,5.6 11.7111111,4.97777778 11.7111111,4.22222222 C11.7111111,3.46666667 12.3222222,2.84444444 13.0888889,2.84444444 Z M9.16666667,2.84444444 C9.93333333,2.84444444 10.5444444,3.46666667 10.5444444,4.22222222 C10.5444444,4.97777778 9.92222222,5.6 9.16666667,5.6 C8.4,5.6 7.78888889,4.97777778 7.78888889,4.22222222 C7.78888889,3.46666667 8.41111111,2.84444444 9.16666667,2.84444444 Z M5.25555556,2.84444444 C6.02222222,2.84444444 6.63333333,3.46666667 6.63333333,4.22222222 C6.63333333,4.97777778 6.01111111,5.6 5.25555556,5.6 C4.48888889,5.6 3.87777778,4.97777778 3.87777778,4.22222222 C3.87777778,3.46666667 4.48888889,2.84444444 5.25555556,2.84444444 Z M6.65555556,20.2666667 C6.65555556,20.6 6.38888889,20.8666667 6.05555556,20.8666667 L4.28888889,20.8666667 C3.95555556,20.8666667 3.68888889,20.6 3.68888889,20.2666667 L3.68888889,17.9777778 C3.68888889,17.6444444 3.95555556,17.3777778 4.28888889,17.3777778 L6.05555556,17.3777778 C6.38888889,17.3777778 6.65555556,17.6444444 6.65555556,17.9777778 L6.65555556,20.2666667 Z M6.65555556,15.4 C6.65555556,15.7333333 6.38888889,16 6.05555556,16 L4.28888889,16 C3.95555556,16 3.68888889,15.7333333 3.68888889,15.4 L3.68888889,13.1111111 C3.68888889,12.7777778 3.95555556,12.5111111 4.28888889,12.5111111 L6.05555556,12.5111111 C6.38888889,12.5111111 6.65555556,12.7777778 6.65555556,13.1111111 L6.65555556,15.4 Z M11,20.2666667 C11,20.6 10.7333333,20.8666667 10.4,20.8666667 L10.3888889,20.8666667 L8.62222222,20.8666667 L8.61111111,20.8666667 C8.27777778,20.8666667 8.01111111,20.6 8.01111111,20.2666667 L8.01111111,17.9777778 C8.01111111,17.6444444 8.27777778,17.3777778 8.61111111,17.3777778 L8.62222222,17.3777778 L10.3888889,17.3777778 L10.4,17.3777778 C10.7333333,17.3777778 11,17.6444444 11,17.9777778 L11,20.2666667 Z M11,15.4 C11,15.7333333 10.7333333,16 10.4,16 L10.3888889,16 L8.62222222,16 L8.61111111,16 C8.27777778,16 8.01111111,15.7333333 8.01111111,15.4 L8.01111111,13.1111111 C8.01111111,12.7777778 8.27777778,12.5111111 8.61111111,12.5111111 L8.62222222,12.5111111 L10.3888889,12.5111111 L10.4,12.5111111 C10.7333333,12.5111111 11,12.7777778 11,13.1111111 L11,15.4 Z M15.3444444,20.2666667 C15.3444444,20.6 15.0777778,20.8666667 14.7444444,20.8666667 L12.9777778,20.8666667 C12.6444444,20.8666667 12.3777778,20.6 12.3777778,20.2666667 L12.3777778,17.9777778 C12.3777778,17.6444444 12.6444444,17.3777778 12.9777778,17.3777778 L14.7444444,17.3777778 C15.0777778,17.3777778 15.3444444,17.6444444 15.3444444,17.9777778 L15.3444444,20.2666667 Z M15.3444444,15.4 C15.3444444,15.7333333 15.0777778,16 14.7444444,16 L12.9777778,16 C12.6444444,16 12.3777778,15.7333333 12.3777778,15.4 L12.3777778,13.1111111 C12.3777778,12.7777778 12.6444444,12.5111111 12.9777778,12.5111111 L14.7444444,12.5111111 C15.0777778,12.5111111 15.3444444,12.7777778 15.3444444,13.1111111 L15.3444444,15.4 Z M19.7,20.2666667 C19.7,20.6 19.4333333,20.8666667 19.1,20.8666667 L17.3333333,20.8666667 C17,20.8666667 16.7333333,20.6 16.7333333,20.2666667 L16.7333333,17.9777778 C16.7333333,17.6444444 17,17.3777778 17.3333333,17.3777778 L19.1,17.3777778 C19.4333333,17.3777778 19.7,17.6444444 19.7,17.9777778 L19.7,20.2666667 Z M19.7,15.4 C19.7,15.7333333 19.4333333,16 19.1,16 L17.3333333,16 C17,16 16.7333333,15.7333333 16.7333333,15.4 L16.7333333,13.1111111 C16.7333333,12.7777778 17,12.5111111 17.3333333,12.5111111 L19.1,12.5111111 C19.4333333,12.5111111 19.7,12.7777778 19.7,13.1111111 L19.7,15.4 Z M19.6111111,9.28888889 L17.8444444,9.28888889 C17.5444444,9.75555556 17.0222222,10.0666667 16.4222222,10.0666667 C15.8222222,10.0666667 15.3,9.75555556 15,9.28888889 L4.55555556,9.28888889 C4.17777778,9.28888889 3.86666667,8.97777778 3.86666667,8.6 C3.86666667,8.22222222 4.17777778,7.91111111 4.55555556,7.91111111 L14.8111111,7.91111111 C15.0222222,7.22222222 15.6666667,6.71111111 16.4222222,6.71111111 C17.1777778,6.71111111 17.8222222,7.21111111 18.0333333,7.91111111 L19.6111111,7.91111111 C19.9888889,7.91111111 20.3,8.22222222 20.3,8.6 C20.3,8.97777778 20,9.28888889 19.6111111,9.28888889 Z M24.0555556,20.2666667 C24.0555556,20.6 23.7888889,20.8666667 23.4555556,20.8666667 L21.6888889,20.8666667 C21.3555556,20.8666667 21.0888889,20.6 21.0888889,20.2666667 L21.0888889,17.9777778 C21.0888889,17.6444444 21.3555556,17.3777778 21.6888889,17.3777778 L23.4555556,17.3777778 C23.7888889,17.3777778 24.0555556,17.6444444 24.0555556,17.9777778 L24.0555556,20.2666667 Z M24.0555556,15.4 C24.0555556,15.7333333 23.7888889,16 23.4555556,16 L21.6888889,16 C21.3555556,16 21.0888889,15.7333333 21.0888889,15.4 L21.0888889,13.1111111 C21.0888889,12.7777778 21.3555556,12.5111111 21.6888889,12.5111111 L23.4555556,12.5111111 C23.7888889,12.5111111 24.0555556,12.7777778 24.0555556,13.1111111 L24.0555556,15.4 Z M28.4111111,20.2666667 C28.4111111,20.6 28.1444444,20.8666667 27.8111111,20.8666667 L26.0444444,20.8666667 C25.7111111,20.8666667 25.4444444,20.6 25.4444444,20.2666667 L25.4444444,17.9777778 C25.4444444,17.6444444 25.7111111,17.3777778 26.0444444,17.3777778 L27.8111111,17.3777778 C28.1444444,17.3777778 28.4111111,17.6444444 28.4111111,17.9777778 L28.4111111,20.2666667 Z M28.4111111,15.4 C28.4111111,15.7333333 28.1444444,16 27.8111111,16 L26.0444444,16 C25.7111111,16 25.4444444,15.7333333 25.4444444,15.4 L25.4444444,13.1111111 C25.4444444,12.7777778 25.7111111,12.5111111 26.0444444,12.5111111 L27.8111111,12.5111111 C28.1444444,12.5111111 28.4111111,12.7777778 28.4111111,13.1111111 L28.4111111,15.4 Z M25.3111111,9.34444444 C23.5,9.34444444 22.0333333,7.86666667 22.0333333,6.06666667 C22.0333333,4.26666667 23.5111111,2.78888889 25.3111111,2.78888889 C27.1222222,2.78888889 28.5888889,4.26666667 28.5888889,6.06666667 C28.5888889,7.86666667 27.1222222,9.34444444 25.3111111,9.34444444 Z" id="Shape"></path>
			</g>
		</g>
	</g>
</svg>
