
<svg width="60px" height="60px" viewBox="0 0 60 60" version="1.1" xmlns="http://www.w3.org/2000/svg" xmlns:xlink="http://www.w3.org/1999/xlink">
	<!-- Generator: Sketch 48.2 (47327) - http://www.bohemiancoding.com/sketch -->
	<desc>Created with Sketch.</desc>
	<defs></defs>
	<g id="Page-1" stroke="none" stroke-width="1" fill="none" fill-rule="evenodd">
		<g id="Violin">
			<g id="Group-2" transform="translate(20.000000, 7.000000)" fill-rule="nonzero">
				<path d="M17.8874873,33.1787597 C17.7664281,32.9081192 17.4597567,32.7987875 17.1550789,32.7987875 C16.8504219,32.8525587 16.6668188,32.7987875 16.4226706,32.5819136 C15.8133461,32.0943992 15.3856259,30.8487484 15.3856259,29.5474865 C15.3856259,28.4649063 15.873886,28.3555655 16.1180342,28.3018356 C16.9714603,28.0849617 17.1550789,25.9180395 17.1550789,25.2674085 C17.1550789,22.12543 14.95992,19.6879499 11.6067501,18.983635 L11.3626175,7.82471767 C11.7903481,7.82471767 12.1555605,7.55407722 12.1555605,7.12031101 C12.1555605,7.0665399 12.095031,6.14528226 12.095031,6.14528226 L12.8274393,6.14528226 C13.8039493,6.14528226 13.8039493,4.73651484 12.8274393,4.73651484 L12.0344962,4.73651484 L11.9739667,3.70771038 L12.8273928,3.70771038 C13.8039028,3.70771038 13.8039028,2.29894295 12.8273928,2.29894295 L11.9134319,2.29894295 L11.8529023,1.2701385 C11.7923728,0.241334042 7.70673779,0.241334042 7.64620305,1.2701385 L7.58567348,2.29894295 L6.6717126,2.29894295 C5.6952026,2.29894295 5.6952026,3.70771038 6.6717126,3.70771038 L7.52513875,3.70771038 L7.46460918,4.73651484 L6.67166611,4.73651484 C5.69515612,4.73651484 5.69515612,6.14528226 6.67166611,6.14528226 L7.40407444,6.14528226 L7.34354487,7.06653531 C7.34354487,7.28340923 7.40407444,7.44651204 7.52714796,7.60782539 C7.71075106,7.7709282 7.8923346,7.82469931 8.13647243,7.82469931 L7.83181536,18.9836166 C4.53907695,19.6880233 2.34391801,22.1255951 2.34391801,25.2673902 C2.34391801,25.9180211 2.5275211,28.084925 3.38096274,28.3018173 C3.56456584,28.3555884 4.05082195,28.4649201 4.05082195,29.5474681 C4.05082195,30.8468947 3.68563531,32.0943809 3.07431195,32.5818953 C2.83017929,32.7987692 2.58605179,32.8525357 2.34190363,32.7987692 C2.03724656,32.7987692 1.73257915,32.9063114 1.54896057,33.1787413 C0.756017505,34.5337331 0.390846358,36.0500519 0.390846358,37.6201464 C0.390846358,40.0039426 1.36735636,42.0077763 3.19532977,43.4703194 C6.67168678,46.1785133 12.8292367,46.1785133 16.305852,43.4703194 C18.1358398,42.0077763 19.1103354,40.0039426 19.1103354,37.6201464 C19.1103354,36.0482624 18.6826048,34.5319436 17.8916865,33.1787413 L17.8874873,33.1787597 Z" id="Path" fill="#16A8F0"></path>
				<path d="M5.86209171,34.1189681 C5.67848861,34.3896085 5.49690507,34.8771045 5.67848861,35.7984035 C5.73901819,36.122815 6.41089694,38.9941118 6.10621921,39.0478875 C4.82502115,39.2109903 6.04568964,41.9729742 7.08272921,40.1860329 C7.20378835,39.9153924 7.38738628,39.3741207 7.2663323,38.5065975 C7.20580273,38.235957 6.59647309,35.3108891 6.77807214,35.2571134 C8.11980493,35.0402395 6.77807214,32.3858028 5.86411125,34.1189681 L5.86209171,34.1189681 Z" id="Path" fill="#FFFFFF"></path>
				<path d="M13.7856892,34.1189681 C13.9692923,34.3896085 14.0903463,34.8771045 13.9692923,35.7984035 C13.9087627,36.122815 13.236884,38.9941118 13.5415565,39.0478875 C14.8227546,39.2109903 13.5415565,41.9729742 12.5650465,40.1860329 C12.3814435,39.9153924 12.2603895,39.3741207 12.3814435,38.5065975 C12.441973,38.235957 13.0513027,35.3108891 12.809174,35.2571134 C11.527976,35.0402395 12.809174,32.3858028 13.785684,34.1189681 L13.7856892,34.1189681 Z" id="Path" fill="#FFFFFF"></path>
			</g>
		</g>
	</g>
</svg>
