
<svg width="60px" height="60px" viewBox="0 0 60 60" version="1.1" xmlns="http://www.w3.org/2000/svg" xmlns:xlink="http://www.w3.org/1999/xlink">
	<!-- Generator: Sketch 48.2 (47327) - http://www.bohemiancoding.com/sketch -->
	<desc>Created with Sketch.</desc>
	<defs></defs>
	<g id="Page-1" stroke="none" stroke-width="1" fill="none" fill-rule="evenodd">
		<g id="Marimba">
			<g transform="translate(14.000000, 19.500000)" fill="#16A8F0" fill-rule="nonzero">
				<path d="M2.19810631,0.982028556 L2.19810631,19.9447629 C2.19810631,20.4209779 2.58388441,20.8067559 3.06009939,20.8067559 L6.50818803,20.8067559 C6.98440301,20.8067559 7.37018111,20.4209779 7.37018111,19.9447629 L7.37018111,0.982028556 C7.37018111,0.506956491 6.98440301,0.120035481 6.50818803,0.120035481 L3.06009939,0.120035481 C2.58388441,0.120035481 2.19810631,0.506956491 2.19810631,0.982028556 Z" id="Fill-1"></path>
				<path d="M9.52448977,7.0160387 L1.37006389,7.0160387 C0.893848904,7.0160387 0.50807081,7.40181679 0.50807081,7.87803177 C0.50807081,8.35424675 0.893848904,8.74002485 1.37006389,8.74002485 L9.52448977,8.74002485 L9.52448977,12.1881144 L1.37006389,12.1881144 C0.893848904,12.1881144 0.50807081,12.5738925 0.50807081,13.0501074 C0.50807081,13.5251795 0.893848904,13.9109576 1.37006389,13.9109576 L9.52448977,13.9109576 L9.52448977,19.0827997 C9.52448977,19.5590147 9.91026786,19.9447928 10.3864828,19.9447928 L13.8345724,19.9447928 C14.3107874,19.9447928 14.6965654,19.5590147 14.6965654,19.0827997 L14.6965654,1.84410955 C14.6965654,1.36789457 14.3107874,0.982116473 13.8345724,0.982116473 L10.3864828,0.982116473 C9.91026786,0.982116473 9.52448977,1.36789457 9.52448977,1.84410955 L9.52448977,7.0160387 Z" id="Fill-2"></path>
				<path d="M16.8508741,12.188173 L16.8508741,8.74008346 L14.6964482,8.74008346 C14.2202332,8.74008346 13.8344551,8.35430536 13.8344551,7.87809038 C13.8344551,7.4018754 14.2202332,7.01609731 14.6964482,7.01609731 L16.8508741,7.01609731 L16.8508741,2.70613193 C16.8508741,2.22991695 17.2366522,1.84413885 17.7128672,1.84413885 L21.1609567,1.84413885 C21.6371717,1.84413885 22.0229498,2.22991695 22.0229498,2.70613193 L22.0229498,18.2207762 C22.0229498,18.6969911 21.6371717,19.0827692 21.1609567,19.0827692 L17.7128672,19.0827692 C17.2366522,19.0827692 16.8508741,18.6969911 16.8508741,18.2207762 L16.8508741,13.9108111 L14.6964482,13.9108111 C14.2202332,13.9108111 13.8344551,13.525033 13.8344551,13.0499609 C13.8344551,12.5737459 14.2202332,12.1879678 14.6964482,12.1879678 L16.8508741,12.188173 Z" id="Fill-3"></path>
				<path d="M24.1772584,12.188173 L24.1772584,8.74008346 L22.0228326,8.74008346 C21.5466176,8.74008346 21.1608395,8.35430536 21.1608395,7.87809038 C21.1608395,7.4018754 21.5466176,7.01609731 22.0228326,7.01609731 L24.1772584,7.01609731 L24.1772584,3.56800778 C24.1772584,3.0917928 24.5630365,2.70601471 25.0392515,2.70601471 L28.487341,2.70601471 C28.963556,2.70601471 29.3493341,3.0917928 29.3493341,3.56800778 L29.3493341,17.3588977 C29.3493341,17.8351127 28.963556,18.2208922 28.487341,18.2208922 L25.0392515,18.2208922 C24.5630365,18.2208922 24.1772584,17.8351127 24.1772584,17.3588977 L24.1772584,13.9108081 L22.0228326,13.9108081 C21.5466176,13.9108081 21.1608395,13.5250301 21.1608395,13.049958 C21.1608395,12.573743 21.5466176,12.1879649 22.0228326,12.1879649 L24.1772584,12.188173 Z" id="Fill-4"></path>
				<path d="M31.0709225,12.1881749 L31.0709225,8.74008536 L28.9164966,8.74008536 C28.4402816,8.74008536 28.0545035,8.35430727 28.0545035,7.87809229 C28.0545035,7.40187731 28.4402816,7.01609921 28.9164966,7.01609921 L31.0709225,7.01609921 L31.0709225,13.9108101 L28.9164966,13.9108101 C28.4402816,13.9108101 28.0545035,13.525032 28.0545035,13.0499599 C28.0545035,12.5737449 28.4402816,12.1879668 28.9164966,12.1879668 L31.0709225,12.1881749 Z" id="Fill-4" transform="translate(29.562713, 10.463455) scale(-1, 1) translate(-29.562713, -10.463455) "></path>
			</g>
		</g>
	</g>
</svg>
