
<svg width="60px" height="60px" viewBox="0 0 60 60" version="1.1" xmlns="http://www.w3.org/2000/svg" xmlns:xlink="http://www.w3.org/1999/xlink">
	<!-- Generator: Sketch 48.2 (47327) - http://www.bohemiancoding.com/sketch -->
	<desc>Created with Sketch.</desc>
	<defs></defs>
	<g id="Page-1" stroke="none" stroke-width="1" fill="none" fill-rule="evenodd">
		<g id="Piano">
			<path d="M35.5354533,21.8143583 C34.2144127,21.0371594 33.1248504,19.9231245 32.3796393,18.5851745 C31.5817735,17.1587763 30.4150357,15.9732022 28.9999103,15.1565002 C27.5847848,14.3397982 25.9758534,13.9182715 24.3424012,13.9408653 C19.3611597,14.002967 15.2456223,18.1891386 15.2456223,23.1798224 L15.2890911,27.7266075 C15.2890911,28.4018968 15.2890911,28.8122993 15.2890911,28.9578152 L15.2890911,44.0219761 C15.2890911,45.1472838 16.2017566,46.0599976 17.3289914,46.0599976 L42.6918932,46.0599976 C43.817201,46.0599976 44.7317935,45.147332 44.7317935,44.0219761 L44.7317935,33.3349487 L44.7543777,27.8681084 C44.7543777,26.5790556 44.2425239,25.3408268 43.3298583,24.4281612 C42.4190715,23.5154957 41.1808428,23.0036418 39.8899063,23.0036418 C38.358189,23.0018063 36.8546152,22.5896881 35.5354533,21.8143583 Z M17.3212112,43.7217352 L17.3212112,35.5168849 C17.3212112,35.3511995 17.4555258,35.2168849 17.6212112,35.2168849 L20.2267106,35.2168849 L20.2267106,39.6711458 C20.2267106,40.2338237 20.7366857,40.6910959 21.2466608,40.6910959 C21.7566359,40.6910959 22.2666109,40.2338141 22.2666109,39.6711458 L22.2666109,35.2168849 L23.9658695,35.2168849 L23.9658695,39.6711458 C23.9658695,40.2338237 24.4231513,40.6910959 24.9858196,40.6910959 C25.548488,40.6910959 26.0057698,40.2338141 26.0057698,39.6711458 L26.0057698,35.2168849 L30.0855704,35.2168849 L30.0855704,39.6711458 C30.0836868,40.2338237 30.5409686,40.6910959 31.1036369,40.6910959 C31.6681937,40.6910959 32.1235871,40.2338141 32.1235871,39.6711458 L32.1235871,35.2168849 L33.8830637,35.2168849 L33.8830637,39.6711458 C33.8830637,40.2338237 34.3403456,40.6910959 34.9030139,40.6910959 C35.4656919,40.6910959 35.9229641,40.2338141 35.9229641,39.6711458 L35.9229641,35.2168849 L37.6222226,35.2168849 L37.6222226,39.6711458 C37.6222226,40.2338237 38.0776208,40.6910959 38.6421728,40.6910959 C39.2048507,40.6910959 39.6621229,40.2338141 39.6621229,39.6711458 L39.6621229,35.2168849 L42.6786645,35.2168849 L42.6786645,44.0236622 L17.6212112,44.0217352 C17.4555347,44.0217226 17.321234,43.8874117 17.321234,43.7217352 L17.3212112,43.7217352 Z" id="Page-1" fill="#00A7F3" fill-rule="nonzero"></path>
		</g>
	</g>
</svg>
