
<svg width="60px" height="60px" viewBox="0 0 60 60" version="1.1" xmlns="http://www.w3.org/2000/svg" xmlns:xlink="http://www.w3.org/1999/xlink">
	<!-- Generator: Sketch 48.2 (47327) - http://www.bohemiancoding.com/sketch -->
	<desc>Created with Sketch.</desc>
	<defs></defs>
	<g id="Page-1" stroke="none" stroke-width="1" fill="none" fill-rule="evenodd">
		<g id="Flute">
			<g id="flute" transform="translate(13.000000, 13.000000)" fill="#16A8F0" fill-rule="nonzero">
				<path d="M30.1230902,0.697360242 L22.9825175,7.77226631 C22.1381119,7.55401235 21.2202797,7.67526455 20.4493007,8.13602293 L19.4335664,7.12962963 L20.2045455,6.36574074 C20.4982517,6.07473545 20.4982517,5.60185185 20.2045455,5.31084656 C19.9108392,5.01984127 19.4335664,5.01984127 19.1398601,5.31084656 L0.22027972,24.0564374 C-0.0734265734,24.3474427 -0.0734265734,24.8203263 0.22027972,25.1113316 C0.513986014,25.4023369 0.991258741,25.4023369 1.28496503,25.1113316 L1.70104895,24.6990741 L2.71678322,25.7054674 C2.25174825,26.4693563 2.11713287,27.3787478 2.34965035,28.215388 L1.022903,29.5299342 C0.630578914,29.9186504 0.627654119,30.5518086 1.01637028,30.9441327 C1.01853779,30.9463203 1.02071538,30.9484979 1.022903,30.9506654 L3.7751881,33.6776398 C4.16495168,34.063819 4.79309028,34.063819 5.18285386,33.6776398 L34.2830411,4.84506577 C34.6753651,4.4563496 34.6782899,3.82319138 34.2895738,3.4308673 C34.2874063,3.42867968 34.2852287,3.42650208 34.2830411,3.42433458 L31.530756,0.697360242 C31.1409924,0.311181034 30.5128538,0.311181034 30.1230902,0.697360242 Z M18.3688811,8.17239859 L19.3846154,9.17879189 C18.9685315,9.85780423 18.8216783,10.6580688 18.9562937,11.4098325 C18.1853147,11.276455 17.3776224,11.4219577 16.7045455,11.8342152 L15.6888112,10.8278219 L18.3688811,8.17239859 Z M5.4458042,20.9887566 L6.46153846,21.9951499 C6.04545455,22.6741623 5.8986014,23.4744268 6.03321678,24.2261905 C5.26223776,24.0928131 4.45454545,24.2383157 3.78146853,24.6505732 L2.76573427,23.6441799 L5.4458042,20.9887566 Z M6.70629371,28.6155203 C6.02097902,29.2945326 4.91958042,29.2945326 4.2465035,28.6155203 C4.22202797,28.5912698 4.18531469,28.5548942 4.16083916,28.5185185 C3.97727273,28.3123898 3.8548951,28.0820106 3.79370629,27.827381 C3.6958042,27.4514991 3.72027972,27.0513668 3.87937063,26.6876102 C3.96503497,26.4936067 4.08741259,26.3238536 4.23426573,26.1662257 C4.39335664,26.0085979 4.56468531,25.8994709 4.76048951,25.8145944 C5.12762238,25.6569665 5.53146853,25.6205908 5.91083916,25.7297178 C6.15559441,25.7903439 6.40034965,25.9115961 6.60839161,26.0934744 C6.6451049,26.1177249 6.66958042,26.1419753 6.70629371,26.178351 C7.37937063,26.8452381 7.37937063,27.9365079 6.70629371,28.6155203 Z M10.451049,24.8930776 C9.76573427,25.5720899 8.66433566,25.5720899 7.99125874,24.8930776 C7.96678322,24.8688272 7.93006993,24.8324515 7.90559441,24.7960758 C7.72202797,24.5899471 7.59965035,24.3595679 7.53846154,24.1049383 C7.44055944,23.7290564 7.46503497,23.3289242 7.62412587,22.9651675 C7.70979021,22.771164 7.83216783,22.6014109 7.97902098,22.4437831 C8.13811189,22.2861552 8.30944056,22.1770282 8.50524476,22.0921517 C8.87237762,21.9345238 9.27622378,21.8981481 9.65559441,22.0072751 C9.90034965,22.0679012 10.1451049,22.1891534 10.3531469,22.3710317 C10.3898601,22.3952822 10.4143357,22.4195326 10.451049,22.4559083 C11.1363636,23.1227954 11.1363636,24.2261905 10.451049,24.8930776 Z M11.5157343,19.1214727 L10.0472028,20.5764991 C9.2027972,20.3582451 8.28496503,20.4794974 7.51398601,20.9402557 L6.49825175,19.9338624 L10.8671329,15.6051587 L11.8828671,16.611552 C11.4178322,17.3754409 11.2954545,18.2848325 11.5157343,19.1214727 Z M14.6241259,11.8948413 L15.6398601,12.9012346 C15.2237762,13.5802469 15.0769231,14.3805115 15.2115385,15.1322751 C14.4405594,14.9988977 13.6328671,15.1444004 12.9597902,15.5566578 L11.9440559,14.5502646 L14.6241259,11.8948413 Z M15.8846154,19.5216049 C15.1993007,20.2006173 14.0979021,20.2006173 13.4248252,19.5216049 C13.4003497,19.4973545 13.3636364,19.4609788 13.3391608,19.4246032 C13.1555944,19.2184744 13.0332168,18.9880952 12.972028,18.7334656 C12.8741259,18.3575838 12.8986014,17.9574515 13.0576923,17.5936949 C13.1433566,17.3996914 13.2657343,17.2299383 13.4125874,17.0723104 C13.5594406,16.9146825 13.743007,16.8055556 13.9388112,16.720679 C14.3059441,16.5630511 14.7097902,16.5266755 15.0891608,16.6358025 C15.3339161,16.6964286 15.5786713,16.8176808 15.7867133,16.9995591 C15.8234266,17.0238095 15.8479021,17.04806 15.8846154,17.0844356 C16.5576923,17.7513228 16.5576923,18.8425926 15.8846154,19.5216049 Z M19.6293706,15.7991623 C18.9440559,16.4781746 17.8426573,16.4781746 17.1695804,15.7991623 C17.1451049,15.7749118 17.1083916,15.7385362 17.0839161,15.7021605 C16.9003497,15.4960317 16.777972,15.2656526 16.7167832,15.0110229 C16.6188811,14.6351411 16.6433566,14.2350088 16.8024476,13.8712522 C16.8881119,13.6772487 17.0104895,13.5074956 17.1573427,13.3498677 C17.3164336,13.1922399 17.4877622,13.0831129 17.6835664,12.9982363 C18.0506993,12.8406085 18.4545455,12.8042328 18.8339161,12.9133598 C19.0786713,12.9739859 19.3234266,13.0952381 19.5314685,13.2771164 C19.5681818,13.3013668 19.5926573,13.3256173 19.6293706,13.3619929 C20.3146853,14.0288801 20.3146853,15.1322751 19.6293706,15.7991623 Z M23.3741259,12.0888448 C22.6888112,12.7678571 21.5874126,12.7678571 20.9143357,12.0888448 C20.8898601,12.0645944 20.8531469,12.0282187 20.8286713,11.991843 C20.6451049,11.7857143 20.5227273,11.5553351 20.4615385,11.3007055 C20.3636364,10.9248236 20.3881119,10.5246914 20.5472028,10.1609347 C20.6328671,9.96693122 20.7552448,9.79717813 20.9020979,9.63955026 C21.0611888,9.4819224 21.2325175,9.37279541 21.4283217,9.28791887 C21.7954545,9.13029101 22.1993007,9.09391534 22.5786713,9.20304233 C22.8234266,9.26366843 23.0681818,9.38492063 23.2762238,9.56679894 C23.3129371,9.59104938 23.3374126,9.61529982 23.3741259,9.65167549 C24.0594406,10.3185626 24.0594406,11.4098325 23.3741259,12.0888448 Z M29.8846154,5.85648148 L29.0646853,5.04409171 C28.770979,4.75308642 28.770979,4.28020282 29.0646853,3.98919753 C29.3583916,3.69819224 29.8356643,3.69819224 30.1293706,3.98919753 L30.9493007,4.8015873 C31.243007,5.09259259 31.243007,5.56547619 30.9493007,5.85648148 C30.6555944,6.14748677 30.1783217,6.14748677 29.8846154,5.85648148 Z" id="XMLID_1132_"></path>
			</g>
		</g>
	</g>
</svg>
