
<svg width="60px" height="60px" viewBox="0 0 60 60" version="1.1" xmlns="http://www.w3.org/2000/svg" xmlns:xlink="http://www.w3.org/1999/xlink">
	<!-- Generator: Sketch 48.2 (47327) - http://www.bohemiancoding.com/sketch -->
	<desc>Created with Sketch.</desc>
	<defs></defs>
	<g id="Page-1" stroke="none" stroke-width="1" fill="none" fill-rule="evenodd">
		<g id="Synth">
			<path d="M44.5187166,30.4876238 C44.0445633,27.3811881 43.5454545,24.1757426 41,24.1757426 C37.9928699,24.1757426 37.2816399,28.8415842 36.5204991,33.779703 C36.0213904,37.009901 35.3475936,41.4529703 34,41.4529703 C32.5026738,41.4529703 31.916221,35.1287129 31.5294118,30.9331683 C30.9180036,24.2871287 30.3315508,18 27,18 C23.7557932,18 23.0819964,23.259901 22.3707665,28.8415842 C21.9465241,32.1460396 21.3101604,37.1336634 20,37.1336634 C18.6524064,37.1336634 18.1657754,34.4108911 17.6916221,31.7747525 C17.1176471,28.5940594 16.4812834,25.0173267 13.9607843,24.3118812 C13.4741533,24.1757426 13,24.5470297 13,25.0544554 C13,25.4381188 13.2370766,25.710396 13.5614973,25.8217822 C15.0213904,26.3044554 15.57041,28.7425743 16.1568627,32.0470297 C16.7433155,35.3143564 17.342246,38.6806931 20,38.6806931 C22.6702317,38.6806931 23.2442068,34.2128713 23.9055258,29.039604 C24.4171123,25.029703 25.1283422,19.5470297 27,19.5470297 C28.9090909,19.5470297 29.5329768,26.2054455 29.9821747,31.0816832 C30.5686275,37.480198 31.0802139,43 34,43 C36.6827094,43 37.3190731,38.8415842 38.0677362,34.0148515 C38.6292335,30.3143564 39.3404635,25.7227723 41,25.7227723 C42.2103387,25.7227723 42.597148,28.259901 42.9839572,30.7227723 C43.483066,33.9529703 44.0944742,37.9009901 47.0641711,38.5693069 C47.5383244,38.6806931 48,38.3094059 48,37.8267327 C48,37.4430693 47.7504456,37.1336634 47.4135472,37.0470297 C45.6042781,36.6138614 45.0677362,34.0272277 44.5187166,30.4876238 Z" id="XMLID_264_" stroke="#16A8F0" fill="#16A8F0" fill-rule="nonzero"></path>
		</g>
	</g>
</svg>
